<svg xmlns="http://www.w3.org/2000/svg" viewBox="0 0 64 64">
  <defs>
    <linearGradient id="g" x1="0" y1="0" x2="1" y2="1">
      <stop offset="0%" stop-color="#5b4a7a"/>
      <stop offset="100%" stop-color="#3a3347"/>
    </linearGradient>
  </defs>
  <path d="M 32.0 15.0 L 33.7 15.0 L 34.9 15.1 L 36.1 15.1 L 37.3 15.3 L 38.6 15.5 L 39.5 15.7 L 40.1 15.8 L 40.6 15.8 L 41.3 15.7 L 42.1 15.5 L 42.7 14.8 L 43.3 14.2 L 44.2 13.2 L 45.0 12.4 L 45.4 12.0 L 45.9 11.6 L 46.6 11.0 L 50.8 7.1 L 53.4 4.8 L 55.3 3.7 L 56.9 3.3 L 59.0 3.2 L 59.6 3.4 L 60.6 4.8 L 60.9 5.5 L 61.1 6.2 L 61.3 7.0 L 61.5 7.8 L 61.7 8.5 L 61.8 9.6 L 61.9 10.7 L 62.0 11.8 L 62.0 12.9 L 62.0 14.0 L 61.9 17.6 L 61.7 20.6 L 61.4 23.6 L 60.9 26.6 L 60.2 29.6 L 60.1 30.2 L 60.1 30.8 L 60.2 31.5 L 60.4 32.1 L 60.6 32.7 L 60.8 33.3 L 60.9 33.8 L 61.1 34.4 L 61.2 35.0 L 61.4 35.5 L 61.8 38.9 L 61.6 41.9 L 61.0 44.9 L 60.0 47.7 L 58.5 50.4 L 58.1 50.9 L 57.4 51.8 L 57.0 52.2 L 56.6 52.7 L 55.2 54.1 L 53.8 55.2 L 52.3 56.2 L 50.8 57.1 L 49.2 57.8 L 47.3 58.6 L 45.9 59.1 L 44.4 59.5 L 42.9 59.9 L 41.4 60.2 L 40.6 60.3 L 39.7 60.5 L 37.9 60.7 L 36.6 60.7 L 35.3 60.8 L 34.0 60.8 L 32.7 60.8 L 32.2 60.8 L 32.0 60.8 L 31.3 60.8 L 30.0 60.8 L 28.7 60.8 L 27.4 60.7 L 26.1 60.7 L 24.3 60.5 L 23.4 60.3 L 22.6 60.2 L 21.1 59.9 L 19.6 59.5 L 18.1 59.1 L 16.7 58.6 L 14.8 57.8 L 13.2 57.1 L 11.7 56.2 L 10.2 55.2 L 8.8 54.1 L 7.4 52.7 L 7.0 52.2 L 6.6 51.8 L 5.9 50.9 L 5.5 50.4 L 4.0 47.7 L 3.0 44.9 L 2.4 41.9 L 2.2 38.9 L 2.6 35.5 L 2.8 35.0 L 2.9 34.4 L 3.1 33.8 L 3.2 33.3 L 3.4 32.7 L 3.6 32.1 L 3.8 31.5 L 3.9 30.8 L 3.9 30.2 L 3.8 29.6 L 3.1 26.6 L 2.6 23.6 L 2.3 20.6 L 2.1 17.6 L 2.0 14.0 L 2.0 12.9 L 2.0 11.8 L 2.1 10.7 L 2.2 9.6 L 2.3 8.5 L 2.5 7.8 L 2.7 7.0 L 2.9 6.2 L 3.1 5.5 L 3.4 4.8 L 4.4 3.4 L 5.0 3.2 L 7.1 3.3 L 8.7 3.7 L 10.6 4.8 L 13.2 7.1 L 17.4 11.0 L 18.1 11.6 L 18.6 12.0 L 19.0 12.4 L 19.8 13.2 L 20.7 14.2 L 21.3 14.8 L 21.9 15.5 L 22.7 15.7 L 23.4 15.8 L 23.9 15.8 L 24.5 15.7 L 25.4 15.5 L 26.7 15.3 L 27.9 15.1 L 29.1 15.1 L 30.3 15.0 Z" fill="url(#g)"/>
</svg>
